<mxfile host="www.draw.io" modified="2020-01-05T08:09:53.498Z" agent="Mozilla/5.0 (Windows NT 6.1; Win64; x64) AppleWebKit/537.36 (KHTML, like Gecko) Chrome/79.0.3945.88 Safari/537.36" etag="eGfcL9SU5x_8mkTeuyMa" version="12.4.8" type="github">
  <diagram id="uEFxOKB--ZDihy7HPuEc" name="第 1 页">
    <mxGraphModel dx="691" dy="357" grid="1" gridSize="10" guides="1" tooltips="1" connect="1" arrows="1" fold="1" page="1" pageScale="1" pageWidth="1169" pageHeight="827" math="0" shadow="0">
      <root>
        <mxCell id="0"/>
        <mxCell id="1" parent="0"/>
        <mxCell id="dlpDQkjk9Ghl0g33a65h-2" value="" style="rounded=0;whiteSpace=wrap;html=1;dashed=1;" parent="1" vertex="1">
          <mxGeometry x="90" y="500" width="280" height="160" as="geometry"/>
        </mxCell>
        <mxCell id="dlpDQkjk9Ghl0g33a65h-3" value="MT7697D" style="rounded=0;whiteSpace=wrap;html=1;fillColor=#d5e8d4;strokeColor=#82b366;" parent="1" vertex="1">
          <mxGeometry x="440" y="480" width="120" height="40" as="geometry"/>
        </mxCell>
        <mxCell id="7Usn7wG0eWf6IEYnhf6R-1" value="IoT-MQTT Server" style="ellipse;shape=cloud;whiteSpace=wrap;html=1;" parent="1" vertex="1">
          <mxGeometry x="440" y="60" width="140" height="100" as="geometry"/>
        </mxCell>
        <mxCell id="7Usn7wG0eWf6IEYnhf6R-2" value="TOP Server&lt;br&gt;Device Register" style="ellipse;shape=cloud;whiteSpace=wrap;html=1;" parent="1" vertex="1">
          <mxGeometry x="720" y="60" width="150" height="100" as="geometry"/>
        </mxCell>
        <mxCell id="7Usn7wG0eWf6IEYnhf6R-3" value="Fota OSS Server" style="ellipse;shape=cloud;whiteSpace=wrap;html=1;" parent="1" vertex="1">
          <mxGeometry x="160" y="60" width="140" height="100" as="geometry"/>
        </mxCell>
        <mxCell id="Uirxl9wFZF3BG0lqKNT9-1" value="主控芯片" style="rounded=0;whiteSpace=wrap;html=1;" vertex="1" parent="1">
          <mxGeometry x="440" y="560" width="120" height="40" as="geometry"/>
        </mxCell>
        <mxCell id="Uirxl9wFZF3BG0lqKNT9-2" value="" style="shape=image;verticalAlign=top;verticalLabelPosition=bottom;labelBackgroundColor=none;imageAspect=0;aspect=fixed;image=https://cdn2.iconfinder.com/data/icons/pittogrammi/142/50-128.png;imageBorder=none;fontColor=none;noLabel=1;imageBackground=none;" vertex="1" parent="1">
          <mxGeometry x="540" y="442" width="38" height="38" as="geometry"/>
        </mxCell>
        <mxCell id="Uirxl9wFZF3BG0lqKNT9-3" value="" style="points=[[0.5,0,0],[1,0.5,0],[0.5,1,0],[0,0.5,0],[0.145,0.145,0],[0.8555,0.145,0],[0.855,0.8555,0],[0.145,0.855,0]];verticalLabelPosition=bottom;html=1;verticalAlign=top;aspect=fixed;align=center;pointerEvents=1;shape=mxgraph.cisco19.rect;prIcon=router_with_voice;fillColor=#FAFAFA;strokeColor=#005073;labelBackgroundColor=none;fontColor=none;" vertex="1" parent="1">
          <mxGeometry x="190" y="680" width="50" height="50" as="geometry"/>
        </mxCell>
      </root>
    </mxGraphModel>
  </diagram>
</mxfile>
